#!OML:ASF E:\Style4\Style4.ASF
:FULLY-SPECIFIED
:DEGREES
3262
root -0.198953 17.4552 -2.78229 12.0567 7.10746 4.63412
lowerback 18.2985 2.62195 1.09039
upperback 11.8538 3.62083 1.93973
thorax 2.4435 1.83255 0.86978
lowerneck -0.282862 -15.6679 -7.2858
upperneck 28.7134 -21.5356 3.26562
head 10.4507 -10.1742 0.263614
rclavicle -1.43125e-014 -1.11319e-014
rhumerus 61.5256 -1.34454 -1527.99
rradius 11.7388
rwrist 1481.55
rhand -26.5357 27.3786
rfingers 7.12502
rthumb 0.0283049 -2.60112
lclavicle -1.43125e-014 -1.11319e-014
lhumerus 71.0487 15.333 33.4392
lradius 121.366
lwrist 44.8205
lhand -9.91277 27.6058
lfingers 7.12502
lthumb 16.0676 56.9596
rfemur -39.8292 -10.5377 16.9826
rtibia 44.1397
rfoot -15.323 -18.3937
rtoes -5.81303
lfemur -38.2486 -0.399667 -24.1132
ltibia 37.2375
lfoot -10.6616 8.28967
ltoes -16.1851
3263
root -0.200739 17.4428 -2.78177 12.0575 7.10216 4.59666
lowerback 18.3795 2.61691 1.12524
upperback 11.8853 3.61992 1.96521
thorax 2.43743 1.83307 0.874731
lowerneck -0.219248 -15.6887 -7.23253
upperneck 28.6715 -21.5526 3.21977
head 10.412 -10.1842 0.248334
rclavicle 1.27222e-014 1.11319e-014
rhumerus 61.2123 -1.36288 -1528.11
rradius 11.6728
rwrist 1481.74
rhand -26.8601 27.7439
rfingers 7.12502
rthumb -0.284946 -2.23567
lclavicle 1.27222e-014 1.11319e-014
lhumerus 70.9838 15.2535 33.5055
lradius 121.424
lwrist 44.784
lhand -9.86276 27.7129
lfingers 7.12502
lthumb 16.1158 57.0628
rfemur -39.9796 -10.4792 17.0295
rtibia 44.3751
rfoot -15.4085 -18.499
rtoes -5.96818
lfemur -38.4212 -0.36719 -24.0749
ltibia 37.5235
lfoot -10.714 8.22003
ltoes -16.2022
3264
root -0.205126 17.4329 -2.7822 11.9067 7.16644 4.0757
lowerback 18.5346 2.56816 1.63077
upperback 11.9378 3.63011 2.10428
thorax 2.44013 1.86044 0.73239
lowerneck -0.260276 -15.6873 -7.20872
upperneck 28.8068 -21.5302 3.11599
head 10.4529 -10.1747 0.206025
rclavicle 3.49861e-014 -1.43125e-014
rhumerus 60.887 -1.39448 -1528.28
rradius 11.5308
rwrist 1481.94
rhand -27.3029 28.0027
rfingers 7.12502
rthumb -0.712649 -1.97583
lclavicle 3.49861e-014 -1.43125e-014
lhumerus 70.8918 15.134 33.505
lradius 121.459
lwrist 44.7176
lhand -9.98781 27.7682
lfingers 7.12502
lthumb 15.9954 57.1278
rfemur -39.97 -10.2709 17.5913
rtibia 44.5695
rfoot -15.5357 -18.6457
rtoes -5.90559
lfemur -38.5497 -0.269574 -23.4813
ltibia 37.8433
lfoot -10.7876 8.07787
ltoes -15.6116
3265
root -0.206165 17.424 -2.78129 11.8032 7.18654 3.86665
lowerback 18.707 2.53182 1.87559
upperback 12.0121 3.62067 2.16402
thorax 2.44695 1.86725 0.655266
lowerneck -0.532672 -15.6731 -7.12454
upperneck 29.0988 -21.4612 2.86544
head 10.566 -10.1404 0.0872207
rclavicle -5.24792e-014 4.77083e-015
rhumerus 60.606 -1.63725 -1528.97
rradius 11.337
rwrist 1482.67
rhand -27.7021 28.3792
rfingers 7.12502
rthumb -1.09824 -1.59775
lclavicle -5.24792e-014 4.77083e-015
lhumerus 70.828 15.1103 33.5012
lradius 121.487
lwrist 44.7971
lhand -10.1226 27.9098
lfingers 7.12502
lthumb 15.8656 57.2798
rfemur -39.9927 -10.2164 17.8187
rtibia 44.7754
rfoot -15.6469 -18.6438
rtoes -5.9043
lfemur -38.6674 -0.188473 -23.2574
ltibia 38.1728
lfoot -10.902 8.01018
ltoes -15.5284
3266
root -0.205333 17.4106 -2.78459 11.9246 7.17216 4.13297
lowerback 18.7432 2.52762 1.68802
upperback 12.0522 3.58857 2.10044
thorax 2.46443 1.84389 0.697902
lowerneck -0.673602 -15.68 -7.11707
upperneck 29.2238 -21.4508 2.78217
head 10.627 -10.1335 0.0425904
rclavicle 3.18055e-015 2.70347e-014
rhumerus 60.3626 -2.09014 -1530.12
rradius 11.0836
rwrist 1483.82
rhand -28.0372 28.938
rfingers 7.12502
rthumb -1.42181 -1.03704
lclavicle 3.18055e-015 2.70347e-014
lhumerus 70.8065 15.0984 33.5017
lradius 121.512
lwrist 44.8041
lhand -10.1356 27.9593
lfingers 7.12502
lthumb 15.853 57.3303
rfemur -40.2694 -10.3191 17.5522
rtibia 45.0344
rfoot -15.7229 -18.5761
rtoes -5.87533
lfemur -38.9409 -0.176815 -23.5744
ltibia 38.4754
lfoot -10.9791 7.9754
ltoes -15.6736
3267
root -0.208167 17.394 -2.79043 12.1062 7.19134 4.3729
lowerback 18.7262 2.53171 1.48896
upperback 12.0486 3.56532 2.04459
thorax 2.45977 1.82362 0.754439
lowerneck -0.570981 -15.7137 -7.24177
upperneck 29.2201 -21.5361 2.969
head 10.6526 -10.1674 0.116293
rclavicle 7.95139e-015 2.8625e-014
rhumerus 60.0623 -2.72798 -1531.6
rradius 10.84
rwrist 1485.3
rhand -28.581 29.5738
rfingers 7.12502
rthumb -1.94707 -0.397106
lclavicle 7.95139e-015 2.8625e-014
lhumerus 70.8627 14.9305 33.4707
lradius 121.466
lwrist 44.7542
lhand -10.1429 27.849
lfingers 7.12502
lthumb 15.846 57.2205
rfemur -40.6366 -10.441 17.3431
rtibia 45.3407
rfoot -15.8485 -18.5082
rtoes -5.66898
lfemur -39.2758 -0.150419 -23.8534
ltibia 38.7399
lfoot -11.0047 7.90963
ltoes -15.9902
3268
root -0.209819 17.3823 -2.78933 12.135 7.17809 4.35815
lowerback 18.7813 2.53327 1.52516
upperback 12.0846 3.57278 2.0307
thorax 2.47484 1.8301 0.717307
lowerneck -0.347333 -15.7316 -7.25853
upperneck 29.0699 -21.5973 3.14181
head 10.5832 -10.1912 0.193292
rclavicle 2.06736e-014 1.59028e-015
rhumerus 59.8204 -3.68236 -1533.62
rradius 10.5226
rwrist 1487.44
rhand -29.1396 30.1684
rfingers 7.12502
rthumb -2.4865 0.203181
lclavicle 2.06736e-014 1.59028e-015
lhumerus 70.8918 14.7345 33.4189
lradius 121.486
lwrist 44.799
lhand -10.2829 27.8735
lfingers 7.12502
lthumb 15.7112 57.2557
rfemur -40.8555 -10.5013 17.4072
rtibia 45.6611
rfoot -15.858 -18.535
rtoes -6.28308
lfemur -39.4637 -0.114803 -23.8419
ltibia 39.0131
lfoot -11.0908 7.87524
ltoes -15.8125
3269
root -0.209025 17.3732 -2.78398 12.0866 7.14072 4.28762
lowerback 18.8698 2.53139 1.64079
upperback 12.1447 3.58738 2.03753
thorax 2.50339 1.84392 0.655974
lowerneck 0.630607 -15.6435 -7.30766
upperneck 27.9886 -21.5556 3.67873
head 10.071 -10.1937 0.509648
rclavicle -4.45278e-014 1.90833e-014
rhumerus 59.5561 -4.58235 -1535.46
rradius 10.2359
rwrist 1489.5
rhand -29.599 30.1499
rfingers 7.12502
rthumb -2.93019 0.190333
lclavicle -4.45278e-014 1.90833e-014
lhumerus 70.8209 14.6157 33.4569
lradius 121.613
lwrist 44.929
lhand -10.491 28.0349
lfingers 7.12502
lthumb 15.5107 57.4328
rfemur -40.9731 -10.5456 17.4992
rtibia 45.9725
rfoot -16.0058 -18.4866
rtoes -6.46861
lfemur -39.5581 -0.12789 -23.7593
ltibia 39.3181
lfoot -11.3014 7.94404
ltoes -15.9637
3270
root -0.211688 17.3593 -2.78357 12.1193 7.1651 4.31239
lowerback 18.9156 2.51431 1.65316
upperback 12.1675 3.56792 2.03296
thorax 2.50644 1.83532 0.646177
lowerneck 0.0965227 -15.7394 -7.4402
upperneck 28.8345 -21.6309 3.33687
head 10.464 -10.2238 0.324327
rclavicle -2.54444e-014 6.36111e-015
rhumerus 59.2119 -5.19464 -1536.67
rradius 10.0141
rwrist 1490.85
rhand -29.785 30.1206
rfingers 7.12502
rthumb -3.10984 0.163515
lclavicle -2.54444e-014 6.36111e-015
lhumerus 70.7633 14.4802 33.4508
lradius 121.653
lwrist 44.9866
lhand -10.5127 28.2293
lfingers 7.12502
lthumb 15.4899 57.6287
rfemur -41.1848 -10.59 17.5024
rtibia 46.289
rfoot -16.1454 -18.4929
rtoes -6.56372
lfemur -39.7688 -0.110431 -23.7884
ltibia 39.6394
lfoot -11.4682 7.92521
ltoes -16.2158
3271
root -0.214822 17.3409 -2.78596 12.2105 7.20367 4.37224
lowerback 18.9241 2.49282 1.61244
upperback 12.1978 3.53426 2.02199
thorax 2.53362 1.8171 0.663592
lowerneck 1.09011 -15.6522 -7.44321
upperneck 27.6352 -21.5893 3.88364
head 9.90327 -10.2269 0.642518
rclavicle -6.04305e-014 -1.90833e-014
rhumerus 58.7981 -4.99151 -1536.46
rradius 9.79521
rwrist 1490.64
rhand -29.8512 30.0007
rfingers 7.12502
rthumb -3.17377 0.0445588
lclavicle -6.04305e-014 -1.90833e-014
lhumerus 70.7389 14.399 33.387
lradius 121.623
lwrist 45.016
lhand -10.6035 28.3647
lfingers 7.12502
lthumb 15.4024 57.7709
rfemur -41.4871 -10.6559 17.485
rtibia 46.6194
rfoot -16.2718 -18.4755
rtoes -6.45113
lfemur -40.079 -0.0588297 -23.872
ltibia 39.9675
lfoot -11.5412 7.83962
ltoes -16.383
3272
root -0.217163 17.3242 -2.78763 12.2251 7.23479 4.37468
lowerback 19.0269 2.47117 1.63897
upperback 12.2436 3.51189 2.01991
thorax 2.53409 1.80789 0.647324
lowerneck 0.716727 -15.6858 -7.30527
upperneck 28.0897 -21.5856 3.57483
head 10.0824 -10.2129 0.477259
rclavicle 1.59028e-015 0
rhumerus 58.374 -4.812 -1536.25
rradius 9.52127
rwrist 1490.59
rhand -29.9927 29.9152
rfingers 7.12502
rthumb -3.31039 -0.0388925
lclavicle 1.59028e-015 0
lhumerus 70.7109 14.3299 33.3423
lradius 121.588
lwrist 44.9843
lhand -10.6413 28.2795
lfingers 7.12502
lthumb 15.366 57.6885
rfemur -41.7045 -10.7275 17.525
rtibia 46.9594
rfoot -16.3644 -18.4799
rtoes -6.47244
lfemur -40.3282 0.0127866 -23.8905
ltibia 40.3039
lfoot -11.6234 7.68824
ltoes -15.9787
3273
root -0.21962 17.3088 -2.78752 12.2572 7.26216 4.34865
lowerback 19.1108 2.45913 1.69702
upperback 12.273 3.50624 2.00923
thorax 2.52868 1.809 0.60193
lowerneck 0.559255 -15.7355 -7.1389
upperneck 28.4665 -21.6091 3.29061
head 10.1965 -10.2154 0.335507
rclavicle 1.59028e-015 0
rhumerus 57.8858 -4.67961 -1536.05
rradius 9.26576
rwrist 1490.57
rhand -30.0592 29.8639
rfingers 7.12502
rthumb -3.37458 -0.0891197
lclavicle 1.59028e-015 0
lhumerus 70.7295 14.2455 33.301
lradius 121.488
lwrist 44.9486
lhand -10.4904 28.1781
lfingers 7.12502
lthumb 15.5114 57.5759
rfemur -41.9262 -10.7893 17.597
rtibia 47.2839
rfoot -16.4267 -18.5001
rtoes -6.64447
lfemur -40.5861 0.0538559 -23.861
ltibia 40.6543
lfoot -11.7169 7.63864
ltoes -16.428
